<?xml version="1.0" encoding="UTF-8"?>
<svg width="416px" height="154px" viewBox="0 0 416 154" version="1.1" xmlns="http://www.w3.org/2000/svg" xmlns:xlink="http://www.w3.org/1999/xlink">
    <title>Artboard</title>
    <g id="Artboard" stroke="none" stroke-width="1" fill="none" fill-rule="evenodd">
        <g id="Ella-Rose-December-8" transform="translate(105.205000, 39.110000)" fill="#FFFFFF" fill-rule="nonzero">
            <path d="M11.97,52.29 C24.22,52.29 35.14,43.82 39.69,39.76 C40.04,39.41 40.25,38.99 40.25,38.5 C40.25,37.73 39.76,37.03 39.06,37.03 C38.78,37.03 38.15,37.31 37.31,37.94 C33.88,40.53 25.06,47.04 15.89,47.04 C12.95,47.04 10.78,45.64 10.78,43.68 C10.78,41.09 12.88,37.17 22.26,34.3 C23.17,34.02 23.87,32.41 23.87,31.15 C23.87,30.31 23.52,29.68 22.75,29.68 C22.61,29.68 22.47,29.68 21.35,30.03 C19.74,30.52 17.43,30.94 15.4,30.94 C11.41,30.94 8.75,29.26 8.75,25.55 C8.75,16.66 24.22,4.48 36.05,4.48 C38.15,4.48 39.06,5.6 39.06,7.35 C39.06,11.2 34.72,17.99 29.19,21.98 C28.91,22.19 28.84,22.33 28.84,22.54 C28.84,23.38 30.73,24.43 32.13,24.43 C32.55,24.43 32.9,24.36 33.18,24.15 C40.67,18.69 45.57,11.27 45.57,6.16 C45.57,2.52 43.12,-2.84217094e-14 37.31,-2.84217094e-14 C22.4,-2.84217094e-14 -1.13686838e-13,15.61 -1.13686838e-13,27.37 C-1.13686838e-13,31.08 2.73,35.63 10.64,35.63 C4.27,38.57 2.52,42.77 2.52,45.99 C2.52,49.7 6.37,52.29 11.97,52.29 Z M35.56,51.38 C40.32,51.38 48.86,46.55 58.03,39.97 C58.52,39.62 58.73,38.92 58.73,38.22 C58.73,37.1 58.24,35.98 57.54,35.98 L57.4862695,35.9812305 C57.3551562,35.9898437 57.16375,36.05875 56.49,36.61 C51.52,40.53 45.92,44.38 39.76,46.48 C40.95,43.12 43.54,37.66 44.8,35.42 C50.68,27.79 62.02,8.82 62.02,4.62 C62.02,3.15 61.18,1.05 59.85,1.05 C57.89,1.05 51.17,10.92 43.26,25.41 C42.0233333,27.6966667 40.4522222,30.7455556 38.907037,33.88 L38.5214894,34.6650019 C38.457391,34.7960021 38.3933898,34.927053 38.3295117,35.0581055 L37.9479306,35.8440492 C35.2268519,41.4711786 32.83,46.9204167 32.83,48.3 C32.83,50.19 33.6,51.38 35.56,51.38 Z M53.34,51.38 C58.1,51.38 66.64,46.55 75.81,39.97 C76.3,39.62 76.51,38.92 76.51,38.22 C76.51,37.1 76.02,35.98 75.32,35.98 L75.2662695,35.9812305 C75.1351562,35.9898437 74.94375,36.05875 74.27,36.61 C69.3,40.53 63.7,44.38 57.54,46.48 C58.73,43.12 61.32,37.66 62.58,35.42 C68.46,27.79 79.8,8.82 79.8,4.62 C79.8,3.15 78.96,1.05 77.63,1.05 C75.67,1.05 68.95,10.92 61.04,25.41 C59.8033333,27.6966667 58.2322222,30.7455556 56.687037,33.88 L56.3014894,34.6650019 C56.237391,34.7960021 56.1733898,34.927053 56.1095117,35.0581055 L55.7279306,35.8440492 C53.0068519,41.4711786 50.61,46.9204167 50.61,48.3 C50.61,50.19 51.38,51.38 53.34,51.38 Z M83.09,51.8 C85.96,51.8 88.55,49.84 88.55,48.51 C88.55,48.09 88.34,47.81 88.34,47.46 C88.34,44.66 92.54,36.68 92.54,35.07 C92.54,33.67 90.16,33.11 88.83,33.11 C87.36,33.11 86.45,33.95 85.82,35 L83.37,39.62 C81.9,42.42 76.93,46.34 75.04,46.34 C73.78,46.34 73.36,45.36 73.36,44.31 C73.36,43.4 73.64,42.42 74.06,41.93 C77.07,41.44 82.95,38.71 82.95,35.14 C82.95,34.16 82.18,32.9 80.29,32.9 C76.09,32.9 66.29,41.16 66.29,47.25 C66.29,50.26 68.04,51.59 71.19,51.59 C73.99,51.59 77.56,49.56 80.71,46.41 C80.5,47.11 80.43,47.74 80.43,48.3 C80.43,51.1 81.34,51.8 83.09,51.8 Z M110.74,52.22 C111.3,52.22 111.79,51.8 112.07,50.75 C113.26,46.41 115.01,41.65 117.04,36.89 C121.1,42.98 125.44,48.09 130.2,51.38 C130.83,51.87 131.6,52.01 132.3,52.01 C133.77,52.01 135.17,51.17 135.17,50.12 C135.17,49.77 135.03,49.42 134.68,49 C130.69,44.59 126.98,39.76 123.97,34.23 C143.64,28.63 155.33,19.25 155.33,10.01 C155.33,3.36 150.43,0.35 142.94,0.35 C131.67,0.35 119.42,5.88 106.96,17.5 C106.61,17.85 106.47,18.27 106.47,18.69 C106.47,19.88 107.52,21.21 108.57,21.21 C108.85,21.21 109.13,21.14 109.41,20.93 C121.59,10.85 130.55,4.9 140.35,4.9 C144.2,4.9 146.79,6.58 146.79,10.15 C146.79,16.24 137.41,26.67 119.49,31.64 C122.15,26.18 125.09,21 127.82,17.01 C128.03,16.73 128.1,16.45 128.1,16.24 C128.1,15.26 126.56,14.77 124.74,14.77 C122.78,14.77 120.47,15.4 119.7,16.73 C113.96,26.18 110.74,34.3 109.06,39.76 C107.73,44.03 107.31,46.41 107.31,46.76 C107.31,49.42 109.27,52.22 110.74,52.22 Z M148.4,51.59 C153.16,51.59 158.06,48.09 160.79,43.96 C161.56,44.17 162.47,44.31 163.31,44.31 C167.86,44.31 171.78,42.21 174.37,40.11 C174.79,39.76 175,38.78 175,37.87 C175,36.89 174.79,35.98 174.3,35.98 C174.16,35.98 174.02,36.05 173.11,36.75 C169.89,39.2 166.95,40.53 163.94,40.53 C163.45,40.53 162.96,40.53 162.54,40.46 C162.82,39.48 163.03,38.57 163.03,37.59 C163.03,34.58 161.49,33.18 159.25,33.18 C157.43,33.18 155.33,34.44 155.33,37.59 C155.33,39.34 156.03,40.88 157.15,42 C155.75,44.45 153.79,46.41 151.13,46.41 C149.38,46.41 148.4,44.94 148.4,43.33 C148.4,40.32 150.99,37.8 153.23,36.75 C154.63,36.12 155.19,35.28 155.19,34.37 C155.19,33.39 154.7,32.9 153.93,32.9 C149.17,32.9 141.33,38.22 141.33,45.36 C141.33,48.79 143.64,51.59 148.4,51.59 Z M175.21,51.87 C181.16,51.87 193.83,43.33 198.45,39.62 C199.01,39.2 199.22,38.29 199.22,37.45 C199.22,36.4 198.87,35.42 198.24,35.42 C198.1,35.42 197.96,35.49 197.75,35.63 C195.51,37.45 190.75,41.3 183.75,44.66 C183.96,43.54 184.03,42.35 184.03,41.16 C184.03,35.98 182.35,30.8 180.6,30.8 C179.62,30.8 176.33,34.65 168.49,40.25 C166.88,41.37 166.11,42.07 166.11,42.49 C166.11,42.84 166.67,42.98 167.72,42.98 C170.38,42.98 174.09,40.88 177.87,37.59 C178.08,38.29 178.36,39.83 178.36,41.65 C178.36,43.12 178.22,44.73 177.66,46.2 C176.82,44.8 175.42,44.24 174.02,44.24 C171.78,44.24 169.54,45.71 169.54,47.67 C169.54,49.98 171.78,51.87 175.21,51.87 Z M199.78,51.38 C203.28,51.38 207.69,49.91 210.07,48.51 C211.05,47.95 211.19,47.46 211.19,46.55 C211.19,45.57 210.7,45.15 210.07,45.15 C209.37,45.15 208.74,45.64 206.78,46.34 C205.52,46.83 204.05,47.11 202.72,47.11 C201.11,47.11 199.71,46.69 199.01,45.57 C204.12,44.45 210.28,41.58 210.28,37.17 C210.28,34.44 208.18,32.9 204.54,32.9 C198.87,32.9 191.45,38.15 191.45,44.17 C191.45,49.35 194.67,51.38 199.78,51.38 Z M198.8,42.14 C199.29,38.64 201.32,36.4 203.49,36.4 C204.26,36.4 204.68,36.96 204.68,37.66 C204.68,39.13 203,41.3 198.8,42.14 Z" id="EllaRose"></path>
            <path d="M21.435,86.89 C26.095,86.89 28.895,84.15 28.895,79.49 C28.895,74.83 26.095,72.09 21.435,72.09 L17.255,72.09 L17.255,86.89 L21.435,86.89 Z M21.435,86.35 L17.855,86.35 L17.855,72.63 L21.435,72.63 C25.775,72.63 28.295,75.21 28.295,79.53 C28.295,83.81 25.715,86.35 21.435,86.35 Z M35.935,87.15 C38.075,87.15 40.115,86.09 41.095,83.83 L40.475,83.83 C39.635,85.63 37.915,86.63 35.955,86.63 C33.875,86.63 30.975,85.11 30.935,81.65 L41.495,81.65 L41.515,81.35 C41.375,78.07 38.795,76.03 35.955,76.03 C32.795,76.03 30.355,78.43 30.355,81.61 C30.355,84.75 32.695,87.13 35.935,87.15 Z M40.935,81.13 L30.955,81.13 C31.115,78.49 33.315,76.55 36.035,76.55 C38.495,76.55 40.815,78.59 40.935,81.13 Z M48.515,87.15 C51.035,87.15 53.035,85.71 53.775,83.55 L53.155,83.55 C52.635,85.13 50.915,86.63 48.515,86.63 C45.815,86.63 43.495,84.59 43.495,81.59 C43.495,80.15 44.095,78.75 44.955,77.97 C46.055,76.99 47.035,76.55 48.535,76.55 C50.615,76.55 52.455,77.71 53.175,79.73 L53.795,79.73 C52.955,77.23 50.675,76.03 48.515,76.03 C45.295,76.03 42.935,78.47 42.935,81.61 C42.935,84.91 45.435,87.15 48.515,87.15 Z M60.695,87.15 C62.835,87.15 64.875,86.09 65.855,83.83 L65.235,83.83 C64.395,85.63 62.675,86.63 60.715,86.63 C58.635,86.63 55.735,85.11 55.695,81.65 L66.255,81.65 L66.275,81.35 C66.135,78.07 63.555,76.03 60.715,76.03 C57.555,76.03 55.115,78.43 55.115,81.61 C55.115,84.75 57.455,87.13 60.695,87.15 Z M65.695,81.13 L55.715,81.13 C55.875,78.49 58.075,76.55 60.795,76.55 C63.255,76.55 65.575,78.59 65.695,81.13 Z M68.995,86.89 L68.995,80.85 C68.995,79.31 69.415,78.39 69.975,77.71 C70.495,77.07 71.435,76.55 72.495,76.55 C73.695,76.55 74.735,77.01 75.355,77.81 C75.895,78.53 76.115,79.29 76.115,80.95 L76.115,86.89 L76.675,86.89 L76.675,80.95 C76.675,79.29 76.815,78.65 77.495,77.77 C78.155,76.91 79.295,76.55 80.235,76.55 C81.335,76.55 82.155,76.87 82.715,77.45 C83.515,78.25 83.795,79.49 83.795,80.95 L83.795,86.89 L84.355,86.89 L84.355,80.95 C84.355,79.33 84.015,77.95 83.135,77.09 C82.475,76.43 81.515,76.03 80.235,76.03 C79.035,76.03 77.895,76.51 77.155,77.33 C76.715,77.81 76.515,78.27 76.415,78.57 L76.375,78.57 C76.235,78.09 75.955,77.67 75.675,77.33 C74.935,76.49 73.835,76.03 72.555,76.03 C71.875,76.03 70.015,76.23 69.035,78.17 L68.995,78.17 L68.995,76.29 L68.435,76.29 L68.435,86.89 L68.995,86.89 Z M92.935,87.15 C96.415,87.15 98.515,84.45 98.515,81.59 C98.515,78.69 96.375,76.03 92.935,76.03 C90.375,76.03 88.755,77.45 88.015,78.99 L87.975,78.99 L87.975,72.09 L87.415,72.09 L87.415,86.89 L87.975,86.89 L87.975,84.25 L88.015,84.25 C88.935,86.05 90.695,87.15 92.935,87.15 Z M92.875,86.63 C89.955,86.63 87.915,84.33 87.915,81.59 C87.915,78.69 90.095,76.55 92.935,76.55 C95.675,76.55 97.955,78.59 97.955,81.59 C97.955,83.99 96.295,86.63 92.875,86.63 Z M105.535,87.15 C107.675,87.15 109.715,86.09 110.695,83.83 L110.075,83.83 C109.235,85.63 107.515,86.63 105.555,86.63 C103.475,86.63 100.575,85.11 100.535,81.65 L111.095,81.65 L111.115,81.35 C110.975,78.07 108.395,76.03 105.555,76.03 C102.395,76.03 99.955,78.43 99.955,81.61 C99.955,84.75 102.295,87.13 105.535,87.15 Z M110.535,81.13 L100.555,81.13 C100.715,78.49 102.915,76.55 105.635,76.55 C108.095,76.55 110.415,78.59 110.535,81.13 Z M113.835,86.89 L113.835,81.15 C113.835,79.69 113.995,78.45 115.255,77.31 C116.215,76.63 116.935,76.59 117.575,76.57 L117.575,76.03 C116.655,76.09 114.835,76.21 113.875,78.21 L113.835,78.21 L113.835,76.29 L113.275,76.29 L113.275,86.89 L113.835,86.89 Z M128.835,87.15 C131.315,87.15 133.315,85.19 133.335,82.71 C133.335,80.71 132.015,79.07 130.235,78.51 C131.495,77.97 132.395,76.69 132.395,75.31 C132.395,73.37 130.795,71.83 128.835,71.83 C126.875,71.83 125.275,73.45 125.275,75.31 C125.275,76.69 126.175,77.97 127.435,78.51 C125.635,79.09 124.335,80.73 124.335,82.71 C124.355,85.19 126.355,87.15 128.835,87.15 Z M128.835,78.27 C127.175,78.27 125.875,76.97 125.875,75.33 C125.875,73.67 127.175,72.37 128.835,72.37 C130.495,72.37 131.795,73.67 131.795,75.33 C131.795,76.97 130.495,78.27 128.835,78.27 Z M128.835,86.61 C126.655,86.61 124.935,84.89 124.935,82.71 C124.935,80.53 126.655,78.81 128.835,78.81 C131.015,78.81 132.735,80.53 132.735,82.71 C132.735,84.89 131.015,86.61 128.835,86.61 Z M136.255,88.33 L137.515,85.25 L136.875,85.25 L135.615,88.33 L136.255,88.33 Z M155.555,86.89 L155.555,86.35 L147.415,86.35 L153.375,80.29 C154.695,78.95 155.495,77.85 155.555,76.37 L155.555,76.19 L155.555,76.19 C155.555,73.67 153.675,71.83 151.275,71.83 C149.255,71.83 146.915,73.21 146.855,76.61 L147.455,76.61 C147.515,73.75 149.275,72.37 151.195,72.37 C153.295,72.37 154.955,73.93 154.955,76.17 L154.955,76.27 L154.955,76.27 C154.935,77.51 154.255,78.55 152.975,79.85 L146.615,86.35 L146.615,86.89 L155.555,86.89 Z M162.155,87.15 C163.455,87.15 166.875,86.25 166.875,82.45 L166.875,76.53 C166.875,73.69 164.675,71.83 162.055,71.83 C160.975,71.83 157.355,72.43 157.355,76.71 L157.355,82.45 C157.355,86.07 160.435,87.15 162.155,87.15 Z M162.115,86.61 C159.995,86.61 157.955,85.13 157.955,82.45 L157.955,76.65 C157.955,73.83 159.915,72.37 162.055,72.37 C164.975,72.37 166.275,74.57 166.275,76.53 L166.275,82.45 C166.275,85.67 163.575,86.61 162.115,86.61 Z M177.755,86.89 L177.755,86.35 L169.615,86.35 L175.575,80.29 C176.895,78.95 177.695,77.85 177.755,76.37 L177.755,76.19 L177.755,76.19 C177.755,73.67 175.875,71.83 173.475,71.83 C171.455,71.83 169.115,73.21 169.055,76.61 L169.655,76.61 C169.715,73.75 171.475,72.37 173.395,72.37 C175.495,72.37 177.155,73.93 177.155,76.17 L177.155,76.27 L177.155,76.27 C177.135,77.51 176.455,78.55 175.175,79.85 L168.815,86.35 L168.815,86.89 L177.755,86.89 Z M184.355,87.15 C185.655,87.15 189.075,86.25 189.075,82.45 L189.075,76.53 C189.075,73.69 186.875,71.83 184.255,71.83 C183.175,71.83 179.555,72.43 179.555,76.71 L179.555,82.45 C179.555,86.07 182.635,87.15 184.355,87.15 Z M184.315,86.61 C182.195,86.61 180.155,85.13 180.155,82.45 L180.155,76.65 C180.155,73.83 182.115,72.37 184.255,72.37 C187.175,72.37 188.475,74.57 188.475,76.53 L188.475,82.45 C188.475,85.67 185.775,86.61 184.315,86.61 Z" id="December8,2020" fill-opacity="0.5"></path>
        </g>
    </g>
</svg>