<?xml version="1.0" encoding="UTF-8"?>
<svg width="461px" height="133px" viewBox="0 0 461 133" version="1.1" xmlns="http://www.w3.org/2000/svg" xmlns:xlink="http://www.w3.org/1999/xlink">
    <title>Group 3</title>
    <g id="Page-1" stroke="none" stroke-width="1" fill="none" fill-rule="evenodd">
        <g id="Desktop-HD" transform="translate(-119.000000, -204.000000)" fill-rule="nonzero">
            <g id="Group-3" transform="translate(119.341818, 204.752000)">
                <path d="M16.614,130.248 C27.222,130.248 32.916,124.866 32.916,114.804 L32.916,91.092 C32.916,81.03 27.222,75.648 16.614,75.648 L-5.68434189e-14,75.648 L-5.68434189e-14,130.248 L16.614,130.248 Z M16.458,120.732 L10.92,120.732 L10.92,85.164 L16.458,85.164 C20.358,85.164 21.996,86.88 21.996,90.936 L21.996,114.96 C21.996,119.016 20.358,120.732 16.458,120.732 Z M54.1201818,131.028 C63.9481818,131.028 69.6421818,125.646 69.6421818,117.144 L59.5801818,117.144 C59.5801818,120.654 57.8641818,122.37 54.3541818,122.37 C50.7661818,122.37 49.0501818,120.576 49.0501818,117.534 L49.0501818,112.932 L69.6421818,112.932 L69.6421818,104.352 C69.6421818,94.914 64.1041818,89.688 54.1201818,89.688 C44.0581818,89.688 38.5201818,94.914 38.5201818,104.352 L38.5201818,116.364 C38.5201818,125.724 43.9801818,131.028 54.1201818,131.028 Z M59.3461818,105.522 L49.0501818,105.522 L49.0501818,103.026 C49.0501818,99.906 50.8441818,98.268 54.1981818,98.268 C57.5521818,98.268 59.3461818,99.906 59.3461818,103.026 L59.3461818,105.522 Z M89.9103636,131.028 C99.9723636,131.028 104.886364,125.256 104.886364,116.364 L104.886364,114.258 L94.7463636,114.258 L94.7463636,117.144 C94.7463636,120.186 93.1863636,121.98 89.9103636,121.98 C86.7903636,121.98 85.0743636,120.186 85.0743636,117.144 L85.0743636,103.572 C85.0743636,100.53 86.7903636,98.736 89.9103636,98.736 C93.1863636,98.736 94.7463636,100.53 94.7463636,103.572 L94.7463636,105.6 L104.886364,105.6 L104.886364,104.352 C104.886364,95.46 99.9723636,89.688 89.9103636,89.688 C80.0823636,89.688 74.5443636,94.914 74.5443636,104.352 L74.5443636,116.364 C74.5443636,125.724 80.0823636,131.028 89.9103636,131.028 Z M125.076545,131.028 C134.904545,131.028 140.598545,125.646 140.598545,117.144 L130.536545,117.144 C130.536545,120.654 128.820545,122.37 125.310545,122.37 C121.722545,122.37 120.006545,120.576 120.006545,117.534 L120.006545,112.932 L140.598545,112.932 L140.598545,104.352 C140.598545,94.914 135.060545,89.688 125.076545,89.688 C115.014545,89.688 109.476545,94.914 109.476545,104.352 L109.476545,116.364 C109.476545,125.724 114.936545,131.028 125.076545,131.028 Z M130.302545,105.522 L120.006545,105.522 L120.006545,103.026 C120.006545,99.906 121.800545,98.268 125.154545,98.268 C128.508545,98.268 130.302545,99.906 130.302545,103.026 L130.302545,105.522 Z M156.966727,130.248 L156.966727,105.756 C156.966727,100.92 158.604727,98.736 162.036727,98.736 C165.546727,98.736 166.404727,100.842 166.404727,104.664 L166.404727,130.248 L176.934727,130.248 L176.934727,105.756 C176.934727,100.92 178.494727,98.736 181.926727,98.736 C185.670727,98.736 186.372727,101.154 186.372727,104.664 L186.372727,130.248 L196.902727,130.248 L196.902727,102.948 C196.902727,94.212 193.158727,89.688 186.138727,89.688 C181.146727,89.688 177.636727,92.184 176.076727,96.63 C174.594727,92.028 171.240727,89.688 166.248727,89.688 C160.866727,89.688 157.200727,92.496 155.796727,97.41 L155.562727,90.468 L146.436727,90.468 L146.436727,130.248 L156.966727,130.248 Z M223.644909,131.028 C230.742909,131.028 234.564909,126.504 234.564909,117.768 L234.564909,102.948 C234.564909,94.212 230.742909,89.688 223.644909,89.688 C219.276909,89.688 216.000909,91.482 214.128909,94.758 L214.128909,75.648 L203.598909,75.648 L203.598909,130.248 L211.242909,130.248 L213.036909,123.306 C214.440909,128.22 218.262909,131.028 223.644909,131.028 Z M219.432909,121.98 C215.922909,121.98 214.128909,119.796 214.128909,114.96 L214.128909,105.756 C214.128909,100.92 215.922909,98.736 219.432909,98.736 C222.786909,98.736 224.034909,100.452 224.034909,104.664 L224.034909,116.052 C224.034909,120.264 222.786909,121.98 219.432909,121.98 Z M255.301091,131.028 C265.129091,131.028 270.823091,125.646 270.823091,117.144 L260.761091,117.144 C260.761091,120.654 259.045091,122.37 255.535091,122.37 C251.947091,122.37 250.231091,120.576 250.231091,117.534 L250.231091,112.932 L270.823091,112.932 L270.823091,104.352 C270.823091,94.914 265.285091,89.688 255.301091,89.688 C245.239091,89.688 239.701091,94.914 239.701091,104.352 L239.701091,116.364 C239.701091,125.724 245.161091,131.028 255.301091,131.028 Z M260.527091,105.522 L250.231091,105.522 L250.231091,103.026 C250.231091,99.906 252.025091,98.268 255.379091,98.268 C258.733091,98.268 260.527091,99.906 260.527091,103.026 L260.527091,105.522 Z M287.191273,130.248 L287.191273,109.812 C287.191273,103.494 290.233273,100.14 296.083273,100.14 C296.941273,100.14 297.955273,100.14 298.735273,100.296 L298.735273,90.156 C298.033273,89.844 297.175273,89.688 295.771273,89.688 C290.623273,89.688 287.347273,92.652 286.099273,98.58 L285.787273,90.468 L276.661273,90.468 L276.661273,130.248 L287.191273,130.248 Z M346.135636,130.248 L346.135636,120.732 L325.465636,120.732 L325.465636,120.342 C325.465636,117.846 326.635636,115.74 332.563636,110.982 C343.171636,102.402 347.305636,97.41 347.305636,89.688 C347.305636,81.03 341.767636,74.868 331.081636,74.868 C320.395636,74.868 314.857636,80.952 314.857636,90.468 L314.857636,94.914 L325.153636,94.914 L325.153636,90.546 C325.153636,86.334 327.337636,84.384 330.769636,84.384 C334.123636,84.384 336.385636,86.178 336.385636,90.078 C336.385636,95.07 333.499636,97.878 326.323636,103.494 C317.119636,110.748 314.701636,116.13 314.701636,123.072 L314.701636,130.248 L346.135636,130.248 Z M368.197818,131.028 C378.883818,131.028 384.733818,125.178 384.733818,115.272 L384.733818,90.624 C384.733818,80.718 378.883818,74.868 368.197818,74.868 C357.511818,74.868 351.661818,80.718 351.661818,90.624 L351.661818,115.272 C351.661818,125.178 357.511818,131.028 368.197818,131.028 Z M368.197818,121.512 C364.531818,121.512 362.581818,119.328 362.581818,115.662 L362.581818,90.234 C362.581818,86.568 364.531818,84.384 368.197818,84.384 C371.863818,84.384 373.813818,86.568 373.813818,90.234 L373.813818,115.662 C373.813818,119.328 371.863818,121.512 368.197818,121.512 Z M420.914,130.248 L420.914,120.732 L400.244,120.732 L400.244,120.342 C400.244,117.846 401.414,115.74 407.342,110.982 C417.95,102.402 422.084,97.41 422.084,89.688 C422.084,81.03 416.546,74.868 405.86,74.868 C395.174,74.868 389.636,80.952 389.636,90.468 L389.636,94.914 L399.932,94.914 L399.932,90.546 C399.932,86.334 402.116,84.384 405.548,84.384 C408.902,84.384 411.164,86.178 411.164,90.078 C411.164,95.07 408.278,97.878 401.102,103.494 C391.898,110.748 389.48,116.13 389.48,123.072 L389.48,130.248 L420.914,130.248 Z M442.976182,131.028 C453.662182,131.028 459.512182,125.178 459.512182,115.272 L459.512182,90.624 C459.512182,80.718 453.662182,74.868 442.976182,74.868 C432.290182,74.868 426.440182,80.718 426.440182,90.624 L426.440182,115.272 C426.440182,125.178 432.290182,131.028 442.976182,131.028 Z M442.976182,121.512 C439.310182,121.512 437.360182,119.328 437.360182,115.662 L437.360182,90.234 C437.360182,86.568 439.310182,84.384 442.976182,84.384 C446.642182,84.384 448.592182,86.568 448.592182,90.234 L448.592182,115.662 C448.592182,119.328 446.642182,121.512 442.976182,121.512 Z" id="December2020" fill="#FFFFFF"></path>
                <path d="M92.4021818,68.992 C94.2501818,68.992 94.3381818,55.264 95.3061818,54.296 C95.5701818,54.032 95.7461818,53.768 95.7461818,53.504 C95.7461818,52.976 95.2181818,52.36 94.6021818,52.36 C93.0181818,52.36 92.2261818,60.368 91.7861818,63.536 C92.1381818,49.192 97.7701818,28.16 101.290182,13.728 C109.386182,12.144 117.746182,10.912 123.202182,10.912 C126.898182,10.912 129.274182,11.44 129.362182,12.936 C129.362182,13.464 127.514182,14.432 127.514182,14.96 C127.514182,15.4 128.042182,15.664 128.746182,15.664 C129.978182,15.664 131.826182,14.784 131.826182,12.584 L131.826182,12.144 L131.826182,12.144 C131.562182,9.24 127.866182,8.096 122.498182,8.096 C116.690182,8.096 108.946182,9.416 101.290182,11.088 C100.938182,10.736 100.146182,10.56 99.4421818,10.56 C98.0341818,10.56 97.7701818,11 97.5061818,11.88 C83.5141818,15.048 73.4821818,18.128 73.4821818,19.184 C73.4821818,19.536 73.7461818,19.8 74.5381818,19.8 C74.8901818,19.8 82.0181818,17.6 96.8901818,14.608 C94.5141818,24.288 89.2341818,49.72 89.2341818,61.864 C89.2341818,67.496 90.5541818,68.992 92.4021818,68.992 Z M109.210182,64.856 C109.650182,64.856 110.090182,64.592 110.530182,63.712 C111.286432,62.233875 112.94234,59.6143926 114.795048,56.9707822 L115.243117,56.3364245 C118.02507,52.42875 121.114932,48.664 122.234182,48.664 C122.410182,48.664 122.498182,48.752 122.586182,48.84 C123.290182,50.864 124.082182,52.624 125.050182,53.944 C126.722182,56.232 128.658182,57.552 130.770182,57.728 L131.386182,57.728 C134.026182,57.728 136.842182,56.144 139.746182,52.888 C140.098182,52.448 140.362182,52.008 140.626182,51.568 C140.890182,51.128 140.978182,50.688 141.066182,50.336 L141.066182,49.896 C141.066182,49.72 141.066182,49.544 140.890182,49.544 C140.626182,49.544 140.274182,49.896 139.658182,50.6 C136.842182,53.944 134.642182,55.528 132.618182,55.528 L132.178182,55.528 C130.770182,55.352 129.362182,54.296 128.042182,52.448 C127.250182,51.392 126.546182,50.072 125.754182,48.4 C125.138182,47.08 124.170182,46.464 123.202182,46.464 C118.890182,46.464 112.202182,57.2 110.970182,59.224 C110.882182,59.312 110.794182,59.4 110.794182,59.488 C111.049078,57.5125517 112.457602,51.5224828 114.08412,45.260317 L114.317862,44.364275 L114.317862,44.364275 L114.553964,43.4669558 L114.553964,43.4669558 L114.791819,42.5707839 C115.189369,41.0794673 115.591699,39.6030345 115.986182,38.192 C121.442182,27.016 125.842182,13.552 127.074182,7.832 C127.162182,7.216 127.338182,6.16 127.338182,5.28 C127.338182,4.488 127.250182,3.784 126.722182,3.344 L126.458182,3.168 C126.370182,3.08 126.194182,2.992 126.018182,2.992 C125.842182,2.992 125.666182,3.08 125.402182,3.256 C123.078982,5.0864 117.996102,18.744 113.758022,32.73952 L113.441806,33.7896381 C112.498249,36.940816 111.602022,40.09456 110.794182,43.12 C109.914182,46.288 109.210182,49.368 108.594182,52.184 C107.626182,56.584 107.010182,60.192 107.010182,62.48 C107.098182,63.536 107.186182,64.328 108.330182,64.68 C108.682182,64.768 108.946182,64.856 109.210182,64.856 Z M145.730182,36.344 C146.170182,36.344 146.962182,35.464 147.842182,33.528 C148.282182,32.648 150.482182,29.568 150.482182,28.864 C150.482182,28.424 149.602182,28.248 148.722182,28.248 C147.930182,28.248 147.226182,28.424 146.962182,28.864 C145.642182,31.24 145.114182,33.528 145.114182,34.936 C145.114182,35.816 145.378182,36.344 145.730182,36.344 Z M144.674182,58.784 C146.434182,58.784 148.546182,58.168 150.746182,56.496 C152.330182,55.352 153.914182,53.856 155.674182,51.744 C156.114182,51.216 156.730182,50.424 156.730182,49.72 C156.730182,49.456 156.554182,49.28 156.202182,49.28 C155.938182,49.368 155.498182,49.632 155.146182,50.072 C153.298182,52.448 151.098182,54.384 148.986182,55.616 C147.314182,56.584 145.730182,57.2 144.498182,57.2 C143.882182,57.2 143.266182,57.024 142.826182,56.672 C142.210182,56.232 141.858182,55.44 141.858182,54.208 C141.858182,52.536 142.474182,50.16 144.146182,46.992 C144.234182,46.816 144.322182,46.552 144.322182,46.376 C144.322182,45.496 143.266182,44.88 142.386182,44.88 C141.946182,44.88 141.506182,45.056 141.330182,45.408 C140.186182,47.256 139.482182,49.016 139.218182,50.688 C139.130182,51.304 139.042182,51.92 139.042182,52.448 C139.042182,54.824 139.922182,56.672 141.418182,57.816 C142.298182,58.432 143.442182,58.784 144.674182,58.784 Z M156.202182,66.968 C157.522182,66.968 158.930182,65.56 159.634182,64.856 C160.602182,63.712 161.570182,62.48 162.274182,61.16 C162.714182,60.104 163.066182,59.224 163.154182,58.344 C164.914182,57.2 166.762182,55.968 168.346182,54.736 C170.106182,53.416 171.514182,52.096 172.394182,50.688 L172.746182,49.984 C172.834182,49.72 172.834182,49.544 172.834182,49.28 C172.834182,48.928 172.746182,48.664 172.570182,48.576 C172.218182,48.576 172.130182,48.664 172.042182,48.84 C170.898182,50.336 169.490182,51.744 167.906182,52.976 C166.410182,54.12 164.738182,55.176 163.242182,56.144 C162.912182,53.768 161.295182,52.0355 159.764807,50.501 L159.331101,50.0675743 C158.973621,49.7102347 158.628468,49.3617143 158.314182,49.016 C157.522182,48.136 156.906182,47.168 156.906182,46.2 C156.906182,44.176 159.546182,43.12 161.570182,43.12 C162.274182,43.12 162.802182,43.208 163.242182,43.472 L163.255932,43.48575 L163.255932,43.48575 L163.330182,43.56 L163.330182,43.56 C163.330182,44.264 163.858182,44.616 164.386182,44.616 C164.914182,44.616 165.530182,44.264 165.706182,43.56 C165.794182,43.296 165.794182,43.032 165.794182,42.856 C165.794182,41.976 165.354182,41.448 164.650182,41.008 C164.034182,40.656 163.154182,40.48 162.274182,40.48 C158.842182,40.48 154.178182,43.032 154.090182,46.2 C154.090182,47.608 154.618182,48.84 155.410182,49.984 C157.258182,52.624 160.514182,54.736 160.866182,57.552 C157.082182,59.84 154.090182,61.864 154.090182,64.24 C154.090182,64.856 154.266182,65.56 154.794182,66.264 L155.058182,66.528 C155.410182,66.792 155.850182,66.968 156.202182,66.968 Z M155.938182,65.296 C155.938182,65.208 155.850182,65.032 155.850182,64.856 C155.850182,63.536 157.786182,62.04 160.250182,60.28 C159.194182,62.48 157.346182,64.416 155.938182,65.296 Z M198.706182,64.944 C198.970182,64.944 199.234182,64.856 199.498182,64.768 C200.290182,64.416 201.786182,62.392 203.106182,59.752 C205.922182,58.696 209.090182,57.288 211.818182,55.352 C213.578182,54.12 215.074182,52.712 216.218182,51.128 L216.746182,50.072 C216.746182,49.808 216.746182,49.544 216.658182,49.456 C216.570182,49.368 216.482182,49.28 216.394182,49.28 C216.130182,49.28 215.602182,49.632 215.074182,50.336 C214.018182,51.656 212.610182,52.8 211.026182,53.856 C208.826182,55.264 206.450182,56.408 204.338182,57.288 C205.570182,54.384 206.538182,51.304 206.538182,48.752 C206.538182,46.552 205.746182,44.792 203.898182,44.176 C203.634182,44.088 203.282182,44 203.018182,44 C199.586182,44 195.978182,50.424 194.218182,55.704 C194.482182,51.832 194.746182,49.28 195.186182,47.256 C200.994182,35.288 206.626182,13.992 207.946182,6.336 C208.122182,5.368 208.122182,4.576 208.122182,3.96 C208.122182,3.608 208.034182,3.256 207.946182,2.992 C207.770182,2.2 206.626182,1.232 205.570182,1.232 C205.042182,1.232 204.514182,1.496 204.074182,2.112 C200.290182,9.064 195.890182,24.464 193.250182,38.104 C192.458182,42.064 191.842182,45.76 191.490182,49.192 C191.138182,52.184 190.962182,54.912 190.962182,57.112 L190.962182,58.432 C191.226182,59.928 191.754182,61.16 192.370182,61.952 C192.810182,62.568 193.514182,63.096 194.042182,63.096 C194.394182,63.096 194.658182,62.832 194.658182,62.128 C194.658182,61.952 194.570182,61.688 194.570182,61.424 C194.658182,57.024 199.850182,46.024 202.842182,46.024 C203.018182,46.024 203.194182,46.112 203.370182,46.2 C203.810182,46.464 204.074182,47.08 204.074182,47.872 C204.074182,50.424 201.962182,55 200.642182,57.464 C198.794182,58.344 196.770182,60.104 196.770182,62.216 C196.770182,62.832 196.946182,63.448 197.298182,64.064 C197.650182,64.592 198.090182,64.944 198.706182,64.944 Z M195.890182,41.624 C197.914182,29.832 203.018182,12.584 205.658182,7.04 C205.042182,13.024 199.322182,32.912 195.890182,41.624 Z M198.090182,62.92 C198.090182,62.832 198.178182,62.392 198.266182,62.216 C198.530182,61.688 198.970182,60.896 199.762182,60.016 C199.762182,60.104 199.674182,60.192 199.674182,60.28 C199.234182,61.248 198.882182,61.952 198.530182,62.392 C198.266182,62.744 198.178182,62.92 198.090182,62.92 Z M216.130182,59.576 C219.298182,59.576 223.786182,54.12 225.194182,51.92 L225.194182,52.536 C225.194182,55.264 226.250182,57.552 227.570182,58.168 C228.010182,58.344 228.450182,58.432 228.978182,58.432 C231.090182,58.432 233.642182,56.848 236.194182,54.208 C237.074182,53.328 237.954182,52.36 238.746182,51.216 C239.010182,50.776 239.186182,50.424 239.186182,49.896 C239.186182,49.544 239.010182,49.28 238.746182,49.28 C238.658182,49.28 238.570182,49.28 238.482182,49.368 C238.306182,49.456 238.042182,49.632 237.866182,49.896 C236.986182,51.128 236.106182,52.096 235.226182,52.976 C232.938182,55.264 230.826182,56.32 229.682182,56.32 C229.506182,56.32 229.330182,56.32 229.154182,56.232 C228.538182,55.968 228.010182,54.736 228.010182,52.976 C228.010182,51.568 228.362182,49.72 229.242182,47.608 C229.242182,47.52 229.330182,47.432 229.330182,47.344 C229.330182,46.552 228.098182,45.672 227.306182,45.672 C226.514182,45.672 226.338182,46.992 225.898182,47.608 C224.930182,46.288 223.258182,44.704 221.410182,44.704 C220.002182,44.792 218.506182,46.112 217.186182,47.872 C216.306182,49.016 215.514182,50.336 214.898182,51.744 C214.194182,53.416 213.666182,55.088 213.666182,56.408 C213.666182,57.288 213.842182,58.08 214.194182,58.608 C214.370182,58.872 214.634182,59.048 214.898182,59.224 C215.250182,59.488 215.690182,59.576 216.130182,59.576 Z M216.394182,57.288 C216.394182,56.496 216.834182,55.176 217.450182,53.768 C218.682182,50.776 220.882182,47.256 222.202182,47.256 C222.818182,47.432 224.314182,48.312 224.842182,48.84 C223.610182,51.216 219.474182,57.288 216.394182,57.288 Z M244.642182,64.944 C244.906182,64.944 245.170182,64.856 245.434182,64.768 C246.226182,64.416 247.722182,62.392 249.042182,59.752 C251.858182,58.696 255.026182,57.288 257.754182,55.352 C259.514182,54.12 261.010182,52.712 262.154182,51.128 L262.682182,50.072 C262.682182,49.808 262.682182,49.544 262.594182,49.456 C262.506182,49.368 262.418182,49.28 262.330182,49.28 C262.066182,49.28 261.538182,49.632 261.010182,50.336 C259.954182,51.656 258.546182,52.8 256.962182,53.856 C254.762182,55.264 252.386182,56.408 250.274182,57.288 C251.506182,54.384 252.474182,51.304 252.474182,48.752 C252.474182,46.552 251.682182,44.792 249.834182,44.176 C249.570182,44.088 249.218182,44 248.954182,44 C245.522182,44 241.914182,50.424 240.154182,55.704 C240.418182,51.832 240.682182,49.28 241.122182,47.256 C246.930182,35.288 252.562182,13.992 253.882182,6.336 C254.058182,5.368 254.058182,4.576 254.058182,3.96 C254.058182,3.608 253.970182,3.256 253.882182,2.992 C253.706182,2.2 252.562182,1.232 251.506182,1.232 C250.978182,1.232 250.450182,1.496 250.010182,2.112 C246.226182,9.064 241.826182,24.464 239.186182,38.104 C238.394182,42.064 237.778182,45.76 237.426182,49.192 C237.074182,52.184 236.898182,54.912 236.898182,57.112 L236.898182,58.432 C237.162182,59.928 237.690182,61.16 238.306182,61.952 C238.746182,62.568 239.450182,63.096 239.978182,63.096 C240.330182,63.096 240.594182,62.832 240.594182,62.128 C240.594182,61.952 240.506182,61.688 240.506182,61.424 C240.594182,57.024 245.786182,46.024 248.778182,46.024 C248.954182,46.024 249.130182,46.112 249.306182,46.2 C249.746182,46.464 250.010182,47.08 250.010182,47.872 C250.010182,50.424 247.898182,55 246.578182,57.464 C244.730182,58.344 242.706182,60.104 242.706182,62.216 C242.706182,62.832 242.882182,63.448 243.234182,64.064 C243.586182,64.592 244.026182,64.944 244.642182,64.944 Z M241.826182,41.624 C243.850182,29.832 248.954182,12.584 251.594182,7.04 C250.978182,13.024 245.258182,32.912 241.826182,41.624 Z M244.026182,62.92 C244.026182,62.832 244.114182,62.392 244.202182,62.216 C244.466182,61.688 244.906182,60.896 245.698182,60.016 C245.698182,60.104 245.610182,60.192 245.610182,60.28 C245.170182,61.248 244.818182,61.952 244.466182,62.392 C244.202182,62.744 244.114182,62.92 244.026182,62.92 Z M254.498182,104.456 C255.906182,104.456 257.490182,104.016 259.250182,103.136 C268.578182,98.384 276.058182,75.064 277.818182,61.16 C279.402182,61.512 280.986182,62.216 282.394182,63.184 C282.834182,63.448 283.098182,63.624 283.274182,63.624 C283.538182,63.624 283.626182,63.448 283.626182,63.184 C283.626182,62.744 283.274182,62.04 282.834182,61.776 C282.130182,61.336 281.426182,60.984 280.722182,60.632 C279.842182,60.192 278.874182,59.928 277.994182,59.664 C278.082182,58.784 278.170182,57.112 278.170182,55.352 C278.170182,51.568 277.906182,46.904 276.234182,46.376 C275.970182,46.288 275.794182,46.288 275.530182,46.288 C273.242182,46.288 270.514182,49.192 268.138182,51.832 C268.050182,51.92 267.962182,52.096 267.874182,52.184 C266.114182,54.208 264.442182,56.056 263.474182,56.056 C263.386182,56.056 263.210182,56.056 263.122182,55.968 C263.034182,55.792 262.946182,55.528 262.946182,55.176 C262.946182,54.208 263.386182,52.624 263.914182,50.952 C264.618182,48.84 265.498182,46.816 266.026182,46.112 C266.466182,45.672 266.642182,45.32 266.642182,45.056 C266.642182,44.44 265.762182,44.088 264.882182,44.088 C264.090182,44.088 263.210182,44.352 262.858182,44.88 C262.242182,45.76 261.626182,47.432 261.098182,49.192 C260.922182,49.808 260.746182,50.512 260.658182,51.128 C260.482182,52.096 260.394182,53.152 260.394182,54.032 C260.394182,55 260.482182,55.968 260.834182,56.672 C261.098182,57.464 262.066182,57.904 263.122182,57.904 C263.562182,57.904 264.002182,57.816 264.442182,57.64 C266.114182,57.2 268.050182,55.352 269.810182,53.416 C272.010182,50.952 273.858182,48.4 274.738182,48.4 C275.090182,48.4 275.266182,50.072 275.266182,52.008 C275.266182,54.56 275.090182,57.64 275.002182,58.872 L275.002182,59.136 C274.474182,59.048 273.858182,59.048 273.330182,59.048 C271.042182,59.048 268.754182,59.488 266.554182,60.28 C252.562182,65.296 246.226182,79.904 246.226182,90.992 C246.226182,91.96 246.314182,92.928 246.402182,93.896 C247.018182,100.056 249.834182,104.456 254.498182,104.456 Z M253.970182,102.08 C253.442182,102.08 252.914182,101.992 252.474182,101.816 C250.362182,101.024 248.954182,98.472 248.426182,94.952 C248.250182,93.984 248.250182,92.84 248.250182,91.696 C248.250182,86.328 249.834182,79.728 253.354182,74.008 C256.434182,68.992 260.834182,64.68 266.906182,62.216 C269.370182,61.248 271.834182,60.72 274.298182,60.72 L274.826182,60.72 C273.682182,69.696 270.074182,83.16 264.970182,92.224 C262.946182,95.832 260.746182,98.736 258.282182,100.408 C256.698182,101.552 255.202182,102.08 253.970182,102.08 Z M296.386182,104.456 C297.794182,104.456 299.378182,104.016 301.138182,103.136 C310.466182,98.384 317.946182,75.064 319.706182,61.16 C321.290182,61.512 322.874182,62.216 324.282182,63.184 C324.722182,63.448 324.986182,63.624 325.162182,63.624 C325.426182,63.624 325.514182,63.448 325.514182,63.184 C325.514182,62.744 325.162182,62.04 324.722182,61.776 C323.138182,60.808 321.554182,60.104 319.882182,59.664 C319.970182,58.256 320.058182,57.024 320.058182,55.88 L320.058182,54.648 C319.882182,51.392 319.002182,49.016 317.242182,48.488 C316.890182,48.4 316.538182,48.312 316.186182,48.312 C314.426182,48.312 312.842182,49.896 311.786182,50.952 C310.202182,52.448 307.562182,56.32 305.010182,56.496 C305.010182,56.408 304.922182,56.32 304.922182,56.144 C304.922182,55.088 305.802182,53.24 306.946182,51.48 L308.530182,49.28 C309.850182,47.608 311.170182,46.376 311.962182,46.376 C312.314182,46.376 312.578182,46.552 312.666182,46.992 C312.754182,47.432 313.018182,47.608 313.282182,47.608 C313.722182,47.608 314.162182,46.992 314.162182,46.112 C313.810182,45.056 313.018182,43.736 311.786182,43.56 L311.434182,43.56 C309.938182,43.56 307.914182,44.968 306.330182,46.816 C305.186182,48.136 304.218182,49.72 303.514182,51.304 C302.986182,52.624 302.634182,53.856 302.634182,54.912 C302.634182,55.176 302.634182,55.44 302.722182,55.704 C302.898182,56.32 303.162182,56.848 303.514182,57.288 C304.042182,57.992 304.746182,58.344 305.626182,58.344 C305.978182,58.344 306.418182,58.256 306.858182,58.08 C307.826182,57.64 311.346182,55 311.610182,54.12 L312.138182,53.592 C312.457589,53.2497778 312.824316,52.8779808 313.200025,52.5149467 L313.523367,52.2068148 C314.494626,51.2942222 315.452848,50.512 315.746182,50.512 C316.450182,50.6 316.890182,52.184 316.978182,54.648 L316.978182,55.088 C316.978182,55.528 316.978182,56.056 316.890182,56.672 L316.890182,59.136 C316.362182,59.048 315.746182,59.048 315.218182,59.048 C312.930182,59.048 310.642182,59.488 308.442182,60.28 C294.450182,65.296 288.114182,79.992 288.114182,91.08 C288.114182,98.648 291.018182,104.456 296.386182,104.456 Z M295.858182,102.08 C292.162182,102.08 290.138182,97.592 290.138182,91.52 L290.138182,90.2 C290.666182,80.344 296.298182,67.232 308.794182,62.216 C311.258182,61.248 313.722182,60.72 316.186182,60.72 L316.714182,60.72 C315.130182,73.304 308.706182,94.512 300.170182,100.408 C298.586182,101.552 297.090182,102.08 295.858182,102.08 Z M331.498182,36.344 C331.938182,36.344 332.730182,35.464 333.610182,33.528 C334.050182,32.648 336.250182,29.568 336.250182,28.864 C336.250182,28.424 335.370182,28.248 334.490182,28.248 C333.698182,28.248 332.994182,28.424 332.730182,28.864 C331.410182,31.24 330.882182,33.528 330.882182,34.936 C330.882182,35.816 331.146182,36.344 331.498182,36.344 Z M330.442182,58.784 C332.202182,58.784 334.314182,58.168 336.514182,56.496 C338.098182,55.352 339.682182,53.856 341.442182,51.744 C341.882182,51.216 342.498182,50.424 342.498182,49.72 C342.498182,49.456 342.322182,49.28 341.970182,49.28 C341.706182,49.368 341.266182,49.632 340.914182,50.072 C339.066182,52.448 336.866182,54.384 334.754182,55.616 C333.082182,56.584 331.498182,57.2 330.266182,57.2 C329.650182,57.2 329.034182,57.024 328.594182,56.672 C327.978182,56.232 327.626182,55.44 327.626182,54.208 C327.626182,52.536 328.242182,50.16 329.914182,46.992 C330.002182,46.816 330.090182,46.552 330.090182,46.376 C330.090182,45.496 329.034182,44.88 328.154182,44.88 C327.714182,44.88 327.274182,45.056 327.098182,45.408 C325.954182,47.256 325.250182,49.016 324.986182,50.688 C324.898182,51.304 324.810182,51.92 324.810182,52.448 C324.810182,54.824 325.690182,56.672 327.186182,57.816 C328.066182,58.432 329.210182,58.784 330.442182,58.784 Z M348.922182,63.184 C349.626182,63.184 350.242182,63.008 350.946182,62.656 C353.322182,61.512 355.874182,58.784 357.986182,56.232 C359.570182,54.384 360.890182,52.536 361.682182,51.48 C361.858182,51.216 361.946182,50.952 361.946182,50.776 C361.946182,50.6 361.770182,50.336 361.594182,50.248 C361.506182,50.16 361.330182,50.16 361.242182,50.16 C360.978182,50.16 360.802182,50.336 360.714182,50.424 C358.778182,52.888 356.930182,55.088 355.258182,56.76 C353.410182,58.608 351.914182,59.928 350.770182,60.632 C350.154182,61.072 349.714182,61.248 349.362182,61.248 C349.274182,61.248 349.098182,61.248 349.010182,61.16 C348.746182,60.984 348.658182,60.456 348.658182,59.752 C348.658182,56.848 350.506182,50.336 351.210182,49.192 C351.386182,48.84 351.474182,48.488 351.474182,48.136 C351.474182,47.256 351.034182,46.464 350.770182,46.376 C349.362182,46.024 346.634182,45.232 346.194182,44.704 C347.250182,43.472 348.746182,40.304 348.746182,38.544 C348.746182,37.84 348.570182,37.4 348.042182,37.312 C347.954182,37.048 347.690182,36.872 347.426182,36.872 C345.930182,36.872 342.850182,41.096 342.850182,44.44 C342.938182,45.496 343.114182,46.112 343.466182,46.552 L338.010182,53.592 C337.746182,53.944 337.570182,54.12 337.658182,54.12 C338.098182,54.12 338.538182,54.032 338.978182,53.856 C339.330182,53.68 339.682182,53.416 340.122182,52.976 L340.914182,52.184 C342.322182,50.512 343.818182,48.576 344.610182,47.52 C345.666182,48.136 346.986182,48.4 348.218182,48.488 C347.338182,50.072 345.842182,54.824 345.842182,58.432 C345.842182,58.872 345.842182,59.224 345.930182,59.664 C346.106182,61.248 346.810182,63.008 348.482182,63.184 L348.922182,63.184 Z M345.402182,43.208 C345.402182,41.8 346.546182,38.544 347.250182,38.192 C347.250182,38.808 346.018182,42.24 345.402182,43.208 Z M363.266182,69.168 C364.058182,69.08 364.498182,68.64 364.498182,68.112 C364.410182,67.496 363.970182,67.056 363.530182,67.056 C362.914182,67.056 362.650182,66.704 362.386182,66 C362.034182,64.944 361.858182,63.536 361.858182,61.864 C361.858182,57.64 362.738182,52.712 363.530182,48.752 C364.252057,47.411375 365.210797,45.5680156 366.307835,43.38167 L366.753792,42.4892177 C370.30124,35.3609824 375.077432,25.0745 378.050182,16.544 C379.722182,11.792 380.778182,7.48 380.778182,4.488 C380.778182,2.728 380.426182,1.408 379.546182,0.616 C379.106182,0.176 378.578182,2.84217094e-14 378.050182,2.84217094e-14 C376.906182,2.84217094e-14 375.762182,1.056 375.234182,2.112 C372.506182,7.304 366.962182,22.616 363.178182,37.312 C362.474182,40.04 361.770182,42.68 361.242182,45.32 C360.626182,48.224 360.098182,50.952 359.746182,53.504 C359.306182,56.232 359.130182,58.784 359.130182,60.896 C359.130182,63.976 359.570182,66.352 360.626182,67.672 C361.330182,68.64 362.298182,69.168 363.266182,69.168 Z M365.466182,40.392 C365.631622,39.72672 365.801004,39.0587648 365.973895,38.3892439 L366.235809,37.383927 C366.720611,35.5392016 367.230307,33.686831 367.75588,31.8498894 L368.044076,30.84959 C371.954519,17.3699504 376.636902,4.9544 378.490182,2.816 C378.754182,3.168 378.842182,3.784 378.842182,4.576 C378.842182,7.04 377.698182,11.176 376.114182,15.84 C373.298182,23.76 368.898182,33.352 365.466182,40.392 Z M371.978182,65.472 C373.122182,65.472 374.266182,64.328 374.266182,62.92 C374.266182,61.39936 372.887468,60.9330304 371.998603,60.8981571 L371.890182,60.896 L371.890182,60.896 C371.010182,61.072 369.690182,62.04 369.690182,63.448 C369.690182,64.504 371.010182,65.472 371.978182,65.472 Z" id="Thisbabygirl." fill="#D94278"></path>
            </g>
        </g>
    </g>
</svg>